<svg width="142" height="142" viewBox="0 0 142 142" fill="none" xmlns="http://www.w3.org/2000/svg">
<path d="M70.8423 39.0263L92.995 26.0175V102.973L70.8423 115.982V39.0263Z" fill="#287ABD"/>
<path d="M70.8434 115.982L48.6897 102.973V26.0175L70.8434 39.0263V115.982Z" fill="#4EA9E4"/>
<path d="M115.146 115.982L92.995 102.973V26.0175L115.146 39.0263V115.982Z" fill="#F7BA4B"/>
<path d="M26.5402 39.0281V39.0263V115.982L48.6907 102.973V26.0175L26.5402 39.0263V39.0281Z" fill="#F7BA4B"/>
<path d="M4.38854 26.0183V102.974L26.5401 115.983V39.0271L4.38854 26.0183Z" fill="#4EA9E4"/>
<path d="M92.996 102.973L115.146 115.982L70.8444 142L26.5413 115.982L48.6897 102.973L70.8423 115.982L92.996 102.973Z" fill="#EDB55B"/>
<path d="M137.298 26.0175V102.973L115.147 115.982V39.0263L137.298 26.0175Z" fill="#287ABD"/>
<path d="M92.9949 26.018L70.8417 39.0265L48.6896 26.018L26.5401 39.0265L4.38854 26.0177L48.6896 0L70.8417 13.0088L92.9949 0L137.298 26.0177L115.144 39.0265L92.9949 26.018Z" fill="#3490CD"/>
</svg>
